<svg fill="currentColor" viewBox="0 0 96 96" xmlns="http://www.w3.org/2000/svg" xmlns:xlink="http://www.w3.org/1999/xlink" id="Icons_FaceWithMask" overflow="hidden"><path d="M81.8199 47.2845 76.0882 37.314 76.0882 36.8139C76.7326 20.2234 63.8057 6.25173 47.2152 5.60734 32.6528 5.04171 19.7821 15.0022 16.6765 29.2408L58.5332 48.1878 77.4794 49.6001C79.1319 49.7237 80.3714 51.1636 80.2478 52.8161 80.238 52.947 80.2196 53.0771 80.1928 53.2056L77.1757 67.6343C76.7555 69.6106 75.0135 71.0259 72.9931 71.0327L57.0805 71.0327C56.5348 71.0348 56.0123 70.8119 55.6361 70.4165 55.5508 70.3261 55.4739 70.228 55.4065 70.1234L27.7858 63.0894 27.7858 86.3278 59.3873 86.3278 59.3873 75.0327 72.9931 75.0327C76.9048 75.0194 80.2774 72.279 81.0907 68.4526L84.1078 54.0239C84.6299 51.5284 83.7534 48.9464 81.8199 47.2845ZM67.3922 41.0718C65.7354 41.0718 64.3922 39.7286 64.3922 38.0718 64.3922 36.4149 65.7354 35.0718 67.3922 35.0718 69.0491 35.0718 70.3922 36.4149 70.3922 38.0718 70.4221 39.6988 69.1273 41.0419 67.5003 41.0718 67.4643 41.0724 67.4283 41.0724 67.3922 41.0718Z"/><path d="M55.8752 50.2781 16.1682 32.3041C15.9952 33.8008 15.934 35.3082 15.9853 36.8139 15.9559 45.4764 19.6118 53.7427 26.0403 59.5491L55.1662 66.9665Z"/></svg>